<?xml version="1.0" encoding="UTF-8" standalone="no"?>
<!-- Created with Inkscape (http://www.inkscape.org/) -->

<svg
   width="210mm"
   height="297mm"
   viewBox="0 0 210 297"
   version="1.1"
   id="svg5"
   inkscape:version="1.1 (c68e22c387, 2021-05-23)"
   sodipodi:docname="LogoF1.svg"
   xmlns:inkscape="http://www.inkscape.org/namespaces/inkscape"
   xmlns:sodipodi="http://sodipodi.sourceforge.net/DTD/sodipodi-0.dtd"
   xmlns="http://www.w3.org/2000/svg"
   xmlns:svg="http://www.w3.org/2000/svg">
  <sodipodi:namedview
     id="namedview7"
     pagecolor="#ffffff"
     bordercolor="#666666"
     borderopacity="1.0"
     inkscape:pageshadow="2"
     inkscape:pageopacity="0.0"
     inkscape:pagecheckerboard="0"
     inkscape:document-units="mm"
     showgrid="false"
     inkscape:zoom="2"
     inkscape:cx="407.75"
     inkscape:cy="463.25"
     inkscape:window-width="1920"
     inkscape:window-height="1051"
     inkscape:window-x="-9"
     inkscape:window-y="-9"
     inkscape:window-maximized="1"
     inkscape:current-layer="layer1" />
  <defs
     id="defs2">
    <rect
       x="67.175144"
       y="321.02648"
       width="365.5742"
       height="42.77996"
       id="rect40940" />
  </defs>
  <g
     inkscape:label="Capa 1"
     inkscape:groupmode="layer"
     id="layer1">
    <g
       id="g137171"
       transform="translate(0,-9.7895833)">
      <g
         id="g36039"
         transform="translate(43.039323,77.092414)">
        <path
           style="fill:#000000;stroke:#000000;stroke-width:0.264583px;stroke-linecap:butt;stroke-linejoin:miter;stroke-opacity:1"
           d="m 76.158592,30.009843 c 0,0 1.12282,-0.48358 1.69828,-0.688433 0.3775,-0.134383 0.76344,-0.244249 1.14884,-0.353938 0.54819,-0.156019 1.09831,-0.306973 1.65428,-0.432464 0.54655,-0.123364 1.09715,-0.231074 1.65118,-0.314627 0.55534,-0.08375 1.11513,-0.136297 1.67448,-0.186759 0.53628,-0.04838 1.07346,-0.09088 1.61153,-0.111162 1.32052,-0.04978 2.642935,-0.04234 3.964285,-0.02572 0.46709,0.0059 0.93404,0.06587 1.40067,0.04434 0.23965,-0.01106 0.47596,-0.0607 0.7142,-0.08893 0.37601,-0.04455 0.75072,-0.106511 1.12881,-0.126943 0.37281,-0.02015 0.74822,-0.02913 1.12005,0.0045 0.35128,0.03176 0.69969,0.09945 1.04171,0.185626 0.37534,0.09457 0.73835,0.233132 1.10323,0.362321 0.36169,0.128064 0.70895,0.29712 1.07597,0.409014 0.47626,0.145198 0.97222,0.216078 1.45485,0.338461 0.5706,0.14469 1.13671,0.306655 1.702873,0.467815 0.58495,0.166506 1.16715,0.342515 1.75017,0.515662 0.70582,0.209619 1.4162,0.404829 2.11611,0.633426 0.632,0.206418 1.25534,0.438598 1.88004,0.666158 0.7712,0.280924 1.54183,0.563813 2.30609,0.863102 0.59308,0.232255 1.18059,0.47855 1.76851,0.723585 0.58954,0.24571 1.18667,0.47501 1.76377,0.74865 0.48786,0.231323 0.96379,0.487876 1.43364,0.753877 0.30718,0.173905 0.6309,0.327512 0.9049,0.55006 0.11473,0.09318 0.22726,0.196772 0.30311,0.323626 0.0713,0.119185 0.0986,0.260258 0.13309,0.394772 0.0357,0.139071 0.0563,0.281749 0.0758,0.423989 0.0428,0.311797 0.0802,0.625274 0.0902,0.939831 0.02,0.629428 -0.0241,1.259574 -0.0606,1.888264 -0.0197,0.34024 -0.0471,0.68021 -0.0854,1.01886 -0.0448,0.39572 -0.0833,0.79378 -0.16886,1.18274 -0.079,0.3595 -0.18469,0.71429 -0.31688,1.05782 -0.0768,0.199674 -0.15579,0.402384 -0.27548,0.579714 -0.12927,0.19155 -0.31566,0.51008 -0.46939,0.51018 -4.35344,0.003 -13.643653,-0.0499 -13.643653,-0.0499 0,0 0.412283,-0.18873 0.598693,-0.31586 0.19985,-0.13629 0.3815,-0.29995 0.54959,-0.4739 0.1445,-0.149534 0.2719,-0.315624 0.39095,-0.486104 0.1095,-0.15681 0.20445,-0.32361 0.29589,-0.49159 0.0859,-0.15775 0.16346,-0.32006 0.23688,-0.48398 0.0547,-0.12205 0.11047,-0.24421 0.15144,-0.37151 0.0462,-0.14351 0.0865,-0.29022 0.10563,-0.43977 0.0221,-0.17337 0.009,-0.52423 0.009,-0.52423 0,0 1.07488,0.0437 1.6121,0.0702 0.67462,0.0332 1.34868,0.0774 2.02327,0.11134 0.64168,0.0323 1.2831,0.0756 1.92547,0.0878 0.69384,0.0132 1.388,-0.002 2.08182,-0.0154 0.34667,-0.007 0.69448,-7.2e-4 1.03967,-0.0335 0.2411,-0.0229 0.49583,-0.0163 0.71761,-0.11364 0.1973,-0.0866 0.36994,-0.23484 0.50669,-0.40135 0.12547,-0.15277 0.20599,-0.34085 0.27085,-0.52759 0.14464,-0.41645 0.2189,-0.85833 0.25534,-1.297675 0.0267,-0.322222 0.095,-0.67054 -0.0279,-0.969585 -0.0879,-0.213916 -0.29667,-0.358141 -0.47363,-0.50707 -0.19553,-0.164562 -0.42225,-0.288565 -0.64143,-0.41999 -0.20659,-0.123876 -0.42229,-0.231888 -0.634,-0.346806 -0.25862,-0.140384 -0.51512,-0.28486 -0.77722,-0.418641 -0.27252,-0.1391 -0.54918,-0.27002 -0.82658,-0.399111 -0.32061,-0.149201 -0.64489,-0.290395 -0.96812,-0.43383 -0.30342,-0.134642 -0.6061,-0.271025 -0.91171,-0.400613 -0.27756,-0.117693 -0.55795,-0.228598 -0.83718,-0.34226 -0.34054,-0.138618 -0.67981,-0.280459 -1.02226,-0.414299 -0.40318,-0.157576 -0.80751,-0.312503 -1.21534,-0.45761 -0.40609,-0.144484 -0.81534,-0.280117 -1.22598,-0.411112 -0.42385,-0.135209 -0.85011,-0.262892 -1.27739,-0.386828 -0.38317,-0.11114 -0.76864,-0.214171 -1.15334,-0.319905 -0.1574,-0.04326 -0.31502,-0.08569 -0.47249,-0.128675 -0.11325,-0.03092 -0.339733,-0.09294 -0.339733,-0.09294 0,0 0.416423,0.514173 0.605903,0.785029 0.18233,0.260638 0.36145,0.525297 0.50975,0.806696 0.19706,0.373926 0.35608,0.767778 0.50136,1.164699 0.13822,0.37762 0.26269,0.761862 0.35105,1.154155 0.0913,0.40529 0.15637,0.818187 0.18355,1.232741 0.0299,0.456899 0.0173,0.917359 -0.0232,1.373444 -0.0303,0.340546 -0.089,0.678896 -0.16369,1.012516 -0.0845,0.37713 -0.19559,0.74852 -0.3208,1.11414 -0.11208,0.32728 -0.23436,0.65231 -0.38451,0.96397 -0.14068,0.29202 -0.30504,0.57297 -0.48182,0.84467 -0.20088,0.30874 -0.41877,0.60742 -0.655713,0.889434 -0.21042,0.25045 -0.44126,0.4837 -0.67769,0.70976 -0.14966,0.1431 -0.30744,0.27771 -0.46804,0.40841 -0.15473,0.12593 -0.31399,0.24646 -0.47689,0.36163 -0.24145,0.17071 -0.48443,0.34071 -0.74103,0.48766 -0.28174,0.16135 -0.57187,0.31082 -0.87356,0.43078 -0.33874,0.1347 -0.69266,0.22904 -1.04516,0.32193 -0.34472,0.0908 -0.69224,0.17499 -1.04449,0.22977 -0.4041,0.0628 -0.81314,0.0943 -1.22168,0.11271 -0.43168,0.0194 -0.86591,0.0351 -1.29634,-0.003 -0.34822,-0.0308 -0.69289,-0.10044 -1.03284,-0.18194 -0.44537,-0.10677 -0.88853,-0.23187 -1.31411,-0.40109 -0.35115,-0.13963 -0.6916,-0.3093 -1.01547,-0.50399 -0.29962,-0.18012 -0.5782,-0.39415 -0.85244,-0.61096 -0.27293,-0.21577 -0.53889,-0.44165 -0.78739,-0.68516 -0.186075,-0.18232 -0.364095,-0.37405 -0.524885,-0.57901 -0.23083,-0.294244 -0.4331,-0.610534 -0.62794,-0.929744 -0.19105,-0.313 -0.37123,-0.6335 -0.52935,-0.96435 -0.13642,-0.28544 -0.36051,-0.87796 -0.36051,-0.87796 0,0 0.3873,0.6642 0.60744,0.97883 0.19753,0.28231 0.421,0.54565 0.63834,0.81301 0.15514,0.19084 0.30584,0.38608 0.47507,0.56455 0.1924,0.2029 0.397205,0.394714 0.612255,0.573424 0.2412,0.20044 0.49755,0.38261 0.75795,0.55737 0.26941,0.18079 0.53926,0.36474 0.83079,0.50714 0.26843,0.13112 0.55086,0.2358 0.83854,0.3163 0.32876,0.092 0.66816,0.14425 1.00667,0.18841 0.34359,0.0448 0.69013,0.0788 1.03664,0.0773 0.29146,-10e-4 0.58335,-0.0279 0.8714,-0.0725 0.25678,-0.0397 0.50975,-0.10324 0.76004,-0.17301 0.28402,-0.0792 0.56735,-0.16514 0.83969,-0.27814 0.1674,-0.0695 0.48555,-0.24465 0.48555,-0.24465 0,0 -0.67244,0.15952 -1.01378,0.21059 -0.30406,0.0455 -0.61104,0.0785 -0.91842,0.0849 -0.2608,0.005 -0.52194,-0.0142 -0.7816,-0.0393 -0.25499,-0.0246 -0.50919,-0.0606 -0.76078,-0.10885 -0.29886,-0.0573 -0.59554,-0.12815 -0.88743,-0.21418 -0.30509,-0.0899 -0.61608,-0.17304 -0.90072,-0.31498 -0.35347,-0.17627 -0.67877,-0.40912 -0.98545,-0.65803 -0.26797,-0.217504 -0.51628,-0.461404 -0.7398,-0.724374 -0.21842,-0.25698 -0.40796,-0.53875 -0.58212,-0.82756 -0.15172,-0.25161 -0.281885,-0.51637 -0.400965,-0.78497 -0.0701,-0.15811 -0.18389,-0.48515 -0.18389,-0.48515 0,0 0.37756,0.6109 0.590755,0.89934 0.15949,0.21579 0.33232,0.42202 0.51353,0.61992 0.17838,0.19481 0.36323,0.3849 0.56345,0.55719 0.20638,0.17759 0.42315,0.34514 0.65454,0.48863 0.25386,0.157424 0.52545,0.285884 0.79941,0.404924 0.28261,0.1228 0.57053,0.23766 0.86806,0.31779 0.28146,0.0758 0.57026,0.13265 0.86108,0.15243 0.3257,0.0221 0.65849,0.0255 0.97859,-0.0386 0.46146,-0.0924 0.90433,-0.27775 1.3234,-0.49192 0.40755,-0.208294 0.79045,-0.469374 1.14167,-0.762844 0.37008,-0.30923 0.71611,-0.65465 1.00482,-1.04095 0.19988,-0.26745 0.35102,-0.56963 0.49411,-0.87131 0.0969,-0.2042 0.17939,-0.41593 0.24514,-0.63217 0.0919,-0.30212 0.18432,-0.60947 0.20715,-0.92442 0.0329,-0.45329 -0.0142,-0.913833 -0.10307,-1.359548 -0.0769,-0.385935 -0.19961,-0.766215 -0.36893,-1.121453 -0.17787,-0.373174 -0.4168,-0.716994 -0.67106,-1.042949 -0.23,-0.294853 -0.48583,-0.572209 -0.7673,-0.81841 -0.29263,-0.255969 -0.60907,-0.489571 -0.94946,-0.677422 -0.28953,-0.159781 -0.60093,-0.282229 -0.91802,-0.376108 -0.35134,-0.104021 -0.71433,-0.182714 -1.08012,-0.204207 -0.35169,-0.02066 -0.70596,0.02101 -1.05435,0.07337 -0.33438,0.05025 -0.66592,0.126987 -0.98794,0.230114 -0.30493,0.09766 -0.60003,0.226238 -0.88805,0.366103 -0.28904,0.140362 -0.58202,0.281415 -0.83982,0.4732 -0.26707,0.198673 -0.50023,0.442 -0.71963,0.692323 -0.19045,0.217298 -0.37525,0.444577 -0.513905,0.698086 -0.15015,0.274527 -0.25183,0.57512 -0.33629,0.87641 -0.0973,0.346922 -0.14216,0.706799 -0.19379,1.063377 -0.0493,0.340687 -0.1005,0.682684 -0.11062,1.026774 -0.007,0.23302 0.0339,0.69854 0.0339,0.69854 0,0 -0.0995,-0.76708 -0.11768,-1.152973 -0.0191,-0.405628 -0.0327,-0.814288 0.009,-1.218201 0.0445,-0.428875 0.13208,-0.854941 0.25585,-1.267969 0.10558,-0.352317 0.24059,-0.698246 0.41257,-1.023361 0.182155,-0.344352 0.402335,-0.67056 0.650105,-0.971176 0.28157,-0.341636 0.5949,-0.661532 0.94227,-0.935997 0.3551,-0.280577 0.74254,-0.526674 1.1537,-0.715815 0.45461,-0.209131 0.93968,-0.358872 1.43103,-0.453658 0.42711,-0.08239 0.86641,-0.101477 1.30136,-0.09667 0.4063,0.0045 0.8137,0.04365 1.21332,0.117139 0.40609,0.07468 0.80559,0.18912 1.19465,0.3274 0.24842,0.08829 0.48657,0.203898 0.72363,0.319262 0.24077,0.117166 0.47577,0.246115 0.70865,0.378254 0.21633,0.122744 0.42655,0.256142 0.63926,0.384858 0.18706,0.113207 0.45458,0.422727 0.62315,0.27136 0.18006,-0.16168 -0.0943,-0.484178 -0.2168,-0.692851 -0.1361,-0.231779 -0.35277,-0.407867 -0.55476,-0.585198 -0.24637,-0.216288 -0.51533,-0.408068 -0.79536,-0.578528 -0.28251,-0.171967 -0.57762,-0.32769 -0.88697,-0.44469 -0.39996,-0.151272 -0.82008,-0.248334 -1.24024,-0.327858 -0.40454,-0.07657 -0.81581,-0.119867 -1.22691,-0.142572 -0.48026,-0.02653 -0.96466,-0.04309 -1.44297,0.0077 -0.47936,0.0509 -0.9536,0.158314 -1.41554,0.296132 -0.4627,0.138044 -0.918,0.310314 -1.34862,0.528746 -0.3922,0.198942 -0.77258,0.429589 -1.11413,0.706612 -0.423015,0.343092 -0.805675,0.740402 -1.141095,1.169521 -0.23003,0.294288 -0.4201,0.620096 -0.58935,0.953074 -0.18891,0.371666 -0.33734,0.763732 -0.47171,1.158408 -0.12073,0.354617 -0.22201,0.716681 -0.29932,1.083222 -0.0378,0.179403 -0.0576,0.362217 -0.0801,0.544187 -0.035,0.283545 -0.061,0.568176 -0.0851,0.852854 -0.0183,0.215813 -0.0431,0.431612 -0.0451,0.648188 -0.002,0.16802 0.0259,0.50342 0.0259,0.50342 0,0 -0.11849,-0.52813 -0.15047,-0.79638 -0.0394,-0.330699 -0.0545,-0.664828 -0.0505,-0.997846 0.004,-0.376676 0.0364,-0.753297 0.0839,-1.12699 0.0508,-0.399729 0.11481,-0.799266 0.21484,-1.189602 0.0981,-0.382884 0.23373,-0.755834 0.37645,-1.124426 0.13522,-0.349231 0.27098,-0.700916 0.45377,-1.027769 0.22471,-0.401816 0.49343,-0.780028 0.78448,-1.136734 0.23318,-0.285775 0.49127,-0.552414 0.766085,-0.798426 0.22037,-0.197281 0.46384,-0.36749 0.70409,-0.540006 0.19772,-0.141969 0.40199,-0.274663 0.60627,-0.407 0.18496,-0.11982 0.5607,-0.350319 0.5607,-0.350319 0,0 -1.27738,-0.05826 -1.91614,-0.08595 -0.495635,-0.02149 -0.990985,-0.05243 -1.486975,-0.06224 -0.6307,-0.01247 -1.26188,-0.01279 -1.89247,0.0043 -0.57642,0.01562 -1.15254,0.04683 -1.72757,0.08978 -0.47995,0.03585 -0.9587,0.08695 -1.43704,0.140121 -0.44896,0.0499 -0.89886,0.09536 -1.34472,0.167883 -0.39074,0.06356 -0.7772,0.151345 -1.16437,0.233941 -0.42168,0.08996 -0.84214,0.185688 -1.26173,0.284914 -0.18814,0.04449 -0.56302,0.139179 -0.56302,0.139181 z"
           id="path850"
           sodipodi:nodetypes="caaaaaaaaaaaaaaaaaaaaaaaaaaaaaaaaascaaaaaaacaaaaaaaaaaaaaaaaaaaaaaaacaaaaaaaaaaaaaaaaaaaaaaaaaaaacaaaaaaaaaaaacaaaaaaaaaacaaaaaaaaaaaaaaaaaaaaaaaaaaaaaacaaaaaaaaaaaaasaaaaaaaaaaaaaaaaaacaaaaaaaaaacaaaaaaaacc" />
        <path
           style="fill:#000000;stroke:#000000;stroke-width:0.264583px;stroke-linecap:butt;stroke-linejoin:miter;stroke-opacity:1"
           d="m 83.544679,37.799663 c 0,0 -0.0789,1.99892 0.28404,2.899746 0.40796,1.012444 2.02951,2.569895 2.02951,2.569895 0,0 -24.878364,-0.05208 -37.309997,-0.434353 -2.107018,-0.06479 -6.316189,-0.31506 -6.316189,-0.31506 0,0 4.523537,-0.118363 6.782708,-0.236953 2.501838,-0.131328 4.998793,-0.343467 7.497458,-0.525442 2.537904,-0.184833 5.075023,-0.38033 7.612168,-0.575302 2.304075,-0.177062 4.604348,-0.409749 6.911552,-0.539916 1.85858,-0.104856 3.72004,-0.158429 5.58123,-0.194058 1.22408,-0.02343 3.67288,-0.01295 3.67288,-0.01295 0,0 0.87834,-1.075377 1.41296,-1.510861 0.55771,-0.454295 1.84168,-1.124733 1.84168,-1.124733 z"
           id="path36733"
           sodipodi:nodetypes="cacacaaaaacacc" />
        <path
           style="fill:#000000;stroke:#000000;stroke-width:0.264583px;stroke-linecap:butt;stroke-linejoin:miter;stroke-opacity:1"
           d="m 41.954047,37.239155 c 0,0 1.242132,0.337899 1.861344,0.513475 0.552043,0.15653 1.103252,0.316109 1.652741,0.481383 0.622108,0.187117 1.237863,0.395161 1.861343,0.577656 0.580335,0.169866 1.164019,0.328345 1.749018,0.481381 0.687749,0.179915 1.372967,0.373491 2.069941,0.513474 0.652658,0.131083 1.313666,0.218005 1.973665,0.304877 0.538765,0.07091 1.078875,0.134383 1.620652,0.176505 0.57121,0.04441 1.144008,0.08438 1.716927,0.08024 0.525139,-0.0038 1.049962,-0.04408 1.572513,-0.09629 0.580313,-0.05798 1.157376,-0.146812 1.732973,-0.240692 0.515608,-0.0841 1.027974,-0.187223 1.54042,-0.288827 0.589602,-0.116902 1.179681,-0.232609 1.765068,-0.369059 0.731514,-0.170511 1.458608,-0.360338 2.182262,-0.561613 0.629308,-0.175034 1.249235,-0.382475 1.877388,-0.561612 0.687515,-0.196065 1.379779,-0.375077 2.069941,-0.56161 0.556112,-0.150304 1.110902,-0.305698 1.668792,-0.449292 0.60805,-0.156507 1.21626,-0.313364 1.82925,-0.449289 0.56427,-0.125124 1.13227,-0.233282 1.70088,-0.336965 0.54412,-0.09922 1.08767,-0.205842 1.6367,-0.272785 0.54851,-0.06688 1.10073,-0.103326 1.65274,-0.128368 0.81223,-0.03685 1.62718,-0.07727 2.439,-0.03209 0.43056,0.02396 0.85697,0.09826 1.28369,0.16046 0.35414,0.05162 0.7114,0.09145 1.05903,0.176508 0.23495,0.05748 0.68998,0.224645 0.68998,0.224645 0,0 -0.92859,0.243874 -1.396,0.353012 -0.52203,0.121893 -1.04706,0.230823 -1.57252,0.336968 -0.73109,0.147682 -1.46538,0.279022 -2.19831,0.417198 -1.42777,0.269168 -2.85478,0.542564 -4.28429,0.802301 -0.94046,0.170878 -1.883,0.330154 -2.82411,0.497428 -0.98443,0.174975 -1.968587,0.351494 -2.952472,0.529521 -0.674124,0.121978 -1.348058,0.245002 -2.021803,0.369056 -1.123542,0.206873 -2.243576,0.433297 -3.36967,0.625798 -0.341514,0.05838 -0.684514,0.107719 -1.026945,0.160459 -0.598853,0.09223 -1.195524,0.200895 -1.797159,0.272783 -0.975604,0.116572 -1.954697,0.216781 -2.936428,0.256739 -0.913884,0.0372 -1.83123,0.04434 -2.743874,-0.01606 -0.677863,-0.04486 -1.351983,-0.143365 -2.021803,-0.256735 -0.533711,-0.09033 -1.062392,-0.20986 -1.588558,-0.336969 -0.377108,-0.0911 -0.751089,-0.195223 -1.123225,-0.304876 -0.355347,-0.104705 -0.707277,-0.220787 -1.05904,-0.336967 -0.391894,-0.129434 -0.782183,-0.263763 -1.17136,-0.401149 -0.41324,-0.14588 -0.828353,-0.287297 -1.235547,-0.44929 C 45.474358,38.95614 45.12,38.791336 44.762107,38.635147 c -0.401681,-0.175299 -0.809572,-0.337339 -1.203455,-0.529519 -0.312196,-0.152324 -0.91785,-0.493532 -0.91785,-0.493532 z"
           id="path62"
           sodipodi:nodetypes="caaaaaaaaaaaaaaaaaaaaaaacaaaaaaaaaaaaaaaaaaaacc" />
        <g
           id="g17903"
           transform="translate(13.100033,-63.515211)"
           style="opacity:1;fill:#000000">
          <path
             style="fill:#000000;stroke:#000000;stroke-width:0.264583px;stroke-linecap:butt;stroke-linejoin:miter;stroke-opacity:1"
             d="m 8.3471593,102.67284 c 0,0 0.390812,0.88687 0.641842,1.29973 0.260384,0.42825 0.551982,0.84194 0.890556,1.21148 0.4787547,0.52255 1.0216157,0.98969 1.5965827,1.40403 0.460538,0.33187 0.953553,0.62487 1.471438,0.85732 0.470741,0.21129 0.968632,0.3645 1.471203,0.48138 0.522328,0.12149 1.058175,0.18491 1.592883,0.22579 0.450994,0.0345 0.905928,0.0516 1.356836,0.016 0.569532,-0.045 1.1395,-0.13391 1.689397,-0.28883 0.529961,-0.1493 1.041091,-0.36719 1.534012,-0.6125 0.489021,-0.24337 0.962945,-0.52329 1.402416,-0.84769 0.371841,-0.27448 0.716359,-0.58785 1.034971,-0.92265 0.378913,-0.39816 0.721404,-0.83225 1.03497,-1.28368 0.24955,-0.35927 0.476619,-0.73603 0.669804,-1.12849 0.183515,-0.37283 0.33669,-0.7617 0.461443,-1.15807 0.108865,-0.34589 0.186314,-0.70183 0.248714,-1.05904 0.078,-0.44652 0.144717,-0.897691 0.156328,-1.35082 0.01123,-0.438362 -0.02544,-0.878263 -0.08411,-1.312827 -0.05993,-0.443891 -0.156845,-0.883122 -0.272781,-1.315776 -0.08603,-0.321035 -0.191236,-0.637423 -0.312899,-0.946716 -0.131414,-0.334083 -0.277726,-0.663458 -0.449289,-0.97881 C 24.302782,94.634243 24.099028,94.318859 23.879748,94.015985 23.72151,93.797423 23.546901,93.590644 23.366276,93.390187 23.144745,93.144333 22.909574,92.910641 22.668271,92.684162 22.448509,92.477901 22.223088,92.276945 21.986315,92.090458 21.77237,91.921951 21.548921,91.765246 21.320404,91.6171 21.069926,91.454716 20.816889,91.293863 20.548818,91.16254 20.272617,91.027234 19.982397,90.921292 19.691492,90.821445 19.349902,90.704202 19.00433,90.59415 18.651017,90.519321 c -0.353718,-0.07492 -0.714176,-0.120425 -1.074849,-0.145791 -0.55719,-0.03919 -1.118715,-0.05175 -1.675673,-0.0094 -0.550183,0.04184 -1.099118,0.12741 -1.634848,0.259488 -0.444509,0.109588 -0.880814,0.258361 -1.301105,0.439891 -0.363047,0.156806 -0.711457,0.348631 -1.047125,0.55772 -0.359587,0.223988 -0.710119,0.466601 -1.030841,0.743387 -0.239595,0.206775 -0.449105,0.44642 -0.662016,0.68058 -0.2667637,0.293387 -0.5329177,0.588906 -0.7702097,0.906603 -0.193088,0.258515 -0.368437,0.530745 -0.529521,0.810326 -0.201813,0.350271 -0.383432,0.712797 -0.545566,1.083109 -0.146629,0.3349 -0.290425,0.673825 -0.385104,1.026945 -0.0969,0.361386 -0.184531,1.107178 -0.184531,1.107178 0,0 0.21499,-0.845987 0.353013,-1.259615 0.08174,-0.244972 0.170909,-0.488371 0.280807,-0.722071 0.194105,-0.412769 0.412467,-0.816193 0.665912,-1.19543 0.246462,-0.368787 0.522168,-0.720182 0.82637,-1.042996 0.2779737,-0.294981 0.5837487,-0.565274 0.9066027,-0.810323 0.343918,-0.261037 0.712614,-0.490291 1.091131,-0.698005 0.289509,-0.15887 0.593098,-0.291751 0.898578,-0.417198 0.307527,-0.126288 0.619332,-0.244614 0.938695,-0.336965 0.270754,-0.07829 0.547313,-0.137678 0.825467,-0.183155 0.274963,-0.04496 0.552792,-0.0768 0.83117,-0.08825 0.322114,-0.01326 0.645818,-0.0063 0.966892,0.02275 0.323596,0.02929 0.64566,0.0816 0.962762,0.152439 0.421256,0.09411 0.83752,0.214628 1.243571,0.361037 0.353799,0.127568 0.70051,0.27729 1.03497,0.449289 0.332824,0.171157 0.658041,0.360375 0.962763,0.577656 0.301382,0.2149 0.583674,0.457441 0.850441,0.714052 0.226497,0.217874 0.434308,0.455173 0.633819,0.698001 0.196601,0.239286 0.381266,0.488819 0.553588,0.746141 0.178898,0.267142 0.35557,0.537849 0.497427,0.826373 0.155796,0.316876 0.27526,0.651249 0.385106,0.986833 0.116238,0.355113 0.215205,0.716781 0.288827,1.083109 0.08935,0.44459 0.169583,0.894632 0.184531,1.347866 0.02057,0.623556 -0.02199,1.252815 -0.131143,1.867085 -0.07856,0.44209 -0.216975,0.87345 -0.37433,1.29399 -0.134348,0.35905 -0.299702,0.70714 -0.484133,1.04323 -0.209223,0.38126 -0.433024,0.75818 -0.703275,1.09892 -0.27403,0.3455 -0.595941,0.65191 -0.922648,0.94809 -0.30427,0.27584 -0.619581,0.54323 -0.962764,0.76883 -0.351904,0.23133 -0.731841,0.41939 -1.115201,0.59371 -0.370131,0.1683 -0.750512,0.31704 -1.139739,0.43462 -0.367387,0.11098 -0.74185,0.209 -1.122989,0.25398 -0.533502,0.063 -1.075236,0.0521 -1.611488,0.0202 -0.393466,-0.0235 -0.786158,-0.0759 -1.172265,-0.15519 -0.446207,-0.0916 -0.88764,-0.21351 -1.315775,-0.36906 -0.336379,-0.12221 -0.663209,-0.27249 -0.97881,-0.44127 -0.26698,-0.14277 -0.525651,-0.30291 -0.77021,-0.48138 -0.331092,-0.24166 -0.63918,-0.5145 -0.938694,-0.79432 -0.182425,-0.17042 -0.3590517,-0.34797 -0.5214967,-0.53754 -0.213696,-0.24937 -0.40839,-0.51512 -0.593704,-0.78625 -0.281855,-0.41238 -0.786247,-1.27565 -0.786247,-1.27565 z"
             id="path5705"
             sodipodi:nodetypes="caaaaaaaaaaaaaaaaaaaaaaaaaaaaaaaaaaaaaaacaaaaaaaaaaaaaaaaaaaaaaaaaaaaaaaaaaaaaaacc" />
          <path
             style="fill:#000000;stroke:#000000;stroke-width:0.264583px;stroke-linecap:butt;stroke-linejoin:miter;stroke-opacity:1"
             d="m 11.066965,104.25338 c 0,0 0.690022,0.72978 1.099153,1.01491 0.48523,0.33817 1.029471,0.59154 1.580536,0.80632 0.329785,0.12853 0.675115,0.21924 1.022936,0.28481 0.351325,0.0662 0.709928,0.0918 1.067063,0.10832 0.299219,0.0138 0.600482,0.0214 0.898578,-0.008 0.392792,-0.0387 0.783498,-0.11339 1.163339,-0.22064 0.395067,-0.11155 0.779715,-0.26277 1.151305,-0.43725 0.326835,-0.15346 0.645045,-0.32916 0.942705,-0.53353 0.265491,-0.18229 0.510808,-0.39392 0.746142,-0.61377 0.261974,-0.24473 0.511786,-0.50421 0.738117,-0.78224 0.202562,-0.24883 0.388344,-0.51263 0.551525,-0.78889 0.150306,-0.25446 0.283242,-0.52053 0.391181,-0.79566 0.144776,-0.36902 0.251388,-0.75312 0.340979,-1.13927 0.06066,-0.26146 0.110955,-0.52672 0.132379,-0.79428 0.03981,-0.497178 0.04735,-1.0006 -0.008,-1.496291 -0.0503,-0.45044 -0.143768,-0.899788 -0.292841,-1.327811 -0.169749,-0.487388 -0.416507,-0.947008 -0.677944,-1.391994 -0.177573,-0.302242 -0.376999,-0.593442 -0.601729,-0.862476 -0.221249,-0.264867 -0.471374,-0.5057 -0.730094,-0.734107 -0.229379,-0.202504 -0.470274,-0.39373 -0.726083,-0.561613 -0.27819,-0.182571 -0.574203,-0.338072 -0.874511,-0.48138 -0.29716,-0.141806 -0.599265,-0.278401 -0.914623,-0.373071 -0.355152,-0.106616 -0.721896,-0.182511 -1.091133,-0.216622 -0.567258,-0.05241 -1.14366,-0.05084 -1.708904,0.02006 -0.450518,0.05651 -0.891063,0.183452 -1.3238,0.320921 -0.224821,0.07142 -0.442899,0.163664 -0.657887,0.260747 -0.222914,0.100663 -0.44377,0.207741 -0.653877,0.332955 -0.220486,0.1314 -0.433158,0.27721 -0.63382,0.437256 -0.276712,0.220703 -0.539217,0.460733 -0.782244,0.71806 -0.279907,0.296378 -0.551535,0.605252 -0.774221,0.946718 -0.246634,0.378186 -0.4388,0.791243 -0.6137617,1.207466 -0.127976,0.304445 -0.237909,0.618034 -0.31691,0.938694 -0.08972,0.364151 -0.155276,0.73675 -0.176506,1.111189 -0.02053,0.362147 0.04814,1.087119 0.04814,1.087119 0,0 0.04982,-1.21971 0.204586,-1.80518 0.15126,-0.572224 0.392494,-1.125752 0.6980027,-1.632688 0.233589,-0.387598 0.535422,-0.734065 0.854453,-1.055026 0.318165,-0.32009 0.664381,-0.619119 1.047004,-0.858464 0.32819,-0.205296 0.69078,-0.354331 1.055029,-0.485393 0.397054,-0.142866 0.805913,-0.26432 1.223511,-0.324934 0.553368,-0.08032 1.121001,-0.109319 1.676812,-0.04814 0.541576,0.05961 1.082718,0.188966 1.584548,0.401153 0.542445,0.22936 1.058044,0.542351 1.504318,0.926658 0.391154,0.33684 0.710711,0.755111 0.998866,1.183397 0.3035,0.451094 0.573586,0.932749 0.758175,1.444144 0.163835,0.453894 0.250445,0.936148 0.300865,1.416065 0.04052,0.385657 0.04287,0.777938 0,1.163338 -0.0444,0.39915 -0.141223,0.79324 -0.26476,1.17537 -0.0984,0.3044 -0.242225,0.59244 -0.377082,0.88254 -0.08773,0.18871 -0.173208,0.37946 -0.280806,0.5576 -0.142736,0.2363 -0.301662,0.46437 -0.481381,0.67393 -0.152048,0.17729 -0.326681,0.33445 -0.501441,0.48941 -0.223446,0.19812 -0.451383,0.39321 -0.698003,0.56161 -0.268599,0.1834 -0.553028,0.34504 -0.846429,0.48539 -0.305543,0.14616 -0.620992,0.2762 -0.946716,0.36906 -0.295597,0.0843 -0.600486,0.1407 -0.906602,0.16848 -0.490067,0.0445 -0.988207,0.059 -1.476238,-0.004 -0.353499,-0.0456 -0.701722,-0.14232 -1.03497,-0.26877 -0.440586,-0.16718 -0.853317,-0.40312 -1.259616,-0.64184 -0.202727,-0.11911 -0.393638,-0.25746 -0.585679,-0.39313 -0.190481,-0.13456 -0.561636,-0.41723 -0.561636,-0.41723 z"
             id="path5707"
             sodipodi:nodetypes="caaaaaaaaaaaaaaaaaaaaaaaaaaaaaaaaacaaaaaaaaaaaaaaaaaaaaaaaaaacc" />
        </g>
        <path
           style="fill:#000000;stroke:#000000;stroke-width:0.264583px;stroke-linecap:butt;stroke-linejoin:miter;stroke-opacity:1"
           d="m 74.112435,29.251486 c 0,0 0.33506,-0.259605 0.45385,-0.431159 0.21274,-0.307238 0.3664,-0.665502 0.43683,-1.03251 0.0677,-0.352939 0.0916,-0.737188 -0.0227,-1.077897 -0.0564,-0.168189 -0.16508,-0.331749 -0.31202,-0.431158 -0.18863,-0.127617 -0.43828,-0.143662 -0.66279,-0.165897 -0.32242,-0.03193 -0.64398,-0.07989 -0.96782,-0.0898 -0.30555,-0.0093 -0.61692,-0.03141 -0.91663,0.02876 -0.17664,0.03547 -0.34952,0.101708 -0.50491,0.192886 -0.12968,0.07609 -0.25778,0.167613 -0.34606,0.28933 -0.0777,0.107169 -0.12373,0.238518 -0.1475,0.368754 -0.035,0.191649 -0.0778,0.411158 0.0114,0.584331 0.0712,0.138176 0.23481,0.209642 0.37442,0.277984 0.10755,0.05265 0.22741,0.08027 0.34606,0.09644 0.3459,0.04713 0.70051,0.03924 1.04728,-9.64e-4 0.28282,-0.03279 0.56109,-0.106062 0.83167,-0.194666 0.24143,-0.07906 0.5593,-0.240338 0.7307,-0.0659 0.10922,0.111153 -0.0232,0.31132 -0.0502,0.464795 -0.0331,0.188269 -0.0897,0.371649 -0.13673,0.556941 -0.0533,0.210322 -0.16489,0.629718 -0.16489,0.629718 z"
           id="path18193"
           sodipodi:nodetypes="caaaasaaaaaaaaasaaacc" />
        <path
           style="fill:#000000;stroke:#000000;stroke-width:0.264583px;stroke-linecap:butt;stroke-linejoin:miter;stroke-opacity:1"
           d="m 20.036033,33.253464 c 0,0 -0.270015,-0.775958 -0.329041,-1.180013 -0.180442,-1.235186 0.124409,-2.510903 -0.06808,-3.744269 -0.03349,-0.214577 -0.07631,-0.437322 -0.187214,-0.624046 -0.13725,-0.23109 -0.346555,-0.419672 -0.567314,-0.572987 -0.173793,-0.120698 -0.379233,-0.190247 -0.57866,-0.260964 -0.167736,-0.05948 -0.516255,-0.136155 -0.516255,-0.136155 0,0 0.799892,-0.279306 1.140301,-0.521929 0.274479,-0.195633 0.571275,-0.419418 0.697794,-0.731834 0.08944,-0.220856 0.08472,-0.490021 0.0057,-0.714815 -0.0526,-0.149624 -0.180178,-0.265632 -0.300677,-0.368754 -0.236313,-0.202235 -0.805585,-0.47087 -0.805585,-0.47087 0,0 8.112966,-1.20454 11.544831,0.05106 0.297765,0.108942 0.362641,0.324493 0.45571,0.543012 0.133427,0.313274 0.23942,0.603193 0.327182,0.914984 0.06846,0.243213 0.154556,0.742068 0.154556,0.742068 0,0 0.03539,-0.611941 0.02696,-0.917935 -0.0099,-0.35855 -0.05551,-0.715275 -0.09077,-1.072223 -0.04472,-0.452631 -0.153175,-1.355879 -0.153175,-1.355879 L 14.238085,22.196523 c 0,0 0.552789,0.370847 0.816933,0.572987 0.246312,0.188493 0.497854,0.374032 0.714814,0.595679 0.150602,0.153856 0.281987,0.326698 0.402791,0.504909 0.122134,0.180174 0.270226,0.356234 0.323371,0.567314 0.05588,0.22196 0.03827,0.464338 -0.01701,0.686449 -0.04786,0.192286 -0.142149,0.376808 -0.265546,0.531847 -0.159716,0.200672 -0.393623,0.328953 -0.593707,0.489405 -0.264597,0.212186 -0.6659,0.315266 -0.802301,0.625796 -0.02722,0.06197 -0.01919,0.14479 0.01635,0.202395 0.159819,0.259071 0.524857,0.308844 0.780476,0.474129 0.326447,0.211084 0.650352,0.427019 0.961176,0.660498 0.266794,0.200405 0.533386,0.403577 0.774322,0.634426 0.234684,0.224858 0.451489,0.469491 0.649636,0.727125 0.161476,0.209953 0.308895,0.431837 0.43683,0.663758 0.152473,0.276403 0.279022,0.567346 0.391446,0.862317 0.108638,0.285038 0.166292,0.58764 0.272311,0.873662 0.08949,0.241443 0.177833,0.486014 0.306351,0.709144 0.122325,0.212378 0.245911,0.438105 0.437531,0.59091 0.05468,0.0436 0.192174,0.08419 0.192174,0.08419 z"
           id="path28653"
           sodipodi:nodetypes="caaaaacaaaacssacaaccaaaaaaaaaaaaaaaaaac" />
        <g
           id="g32121"
           transform="translate(-63.938159,1.5723041)">
          <path
             style="fill:#000000;stroke:#000000;stroke-width:0.264583px;stroke-linecap:butt;stroke-linejoin:miter;stroke-opacity:1"
             d="m 103.43665,34.552937 c 0,0 1.74983,-0.878782 2.65432,-1.251154 0.90626,-0.373102 1.83493,-0.692696 2.77125,-0.982215 0.82826,-0.256107 1.67134,-0.462739 2.514,-0.666504 0.99279,-0.240067 1.98774,-0.476276 2.99342,-0.654812 1.01872,-0.180851 2.04816,-0.29625 3.07527,-0.420949 0.84433,-0.102509 1.69012,-0.19455 2.53739,-0.268939 1.73201,-0.152067 3.46587,-0.299518 5.2034,-0.362484 2.69154,-0.09754 5.38742,-0.0903 8.0799,-0.02339 1.40857,0.035 2.81511,0.131238 4.22118,0.222168 1.52529,0.09864 3.04861,0.226021 4.57198,0.350792 1.29849,0.106353 2.59692,0.214525 3.89379,0.339098 0.92848,0.08919 2.78294,0.292325 2.78294,0.292325 0,0 -1.26283,-0.374219 -1.89427,-0.561266 -1.01338,-0.300188 -2.02262,-0.61473 -3.04019,-0.900364 -1.1997,-0.336758 -2.39733,-0.685949 -3.61315,-0.958828 -0.88169,-0.197886 -1.77388,-0.347486 -2.66602,-0.491109 -0.67591,-0.108813 -1.35354,-0.21083 -2.03459,-0.280633 -0.80832,-0.08285 -1.62025,-0.131166 -2.43215,-0.163703 -1.20741,-0.04839 -3.62484,-0.04677 -3.62484,-0.04677 0,0 0.13448,-0.328981 0.1637,-0.502801 0.0705,-0.419039 0.098,-0.856226 0.0234,-1.274542 -0.0698,-0.391197 -0.26034,-0.752766 -0.43264,-1.110839 -0.0977,-0.203011 -0.20291,-0.405187 -0.3391,-0.584652 -0.13163,-0.173456 -0.2938,-0.322473 -0.45603,-0.467722 -0.18413,-0.164866 -0.37123,-0.331379 -0.58465,-0.456028 -0.30628,-0.178882 -0.64098,-0.312505 -0.98222,-0.409257 -0.16707,-0.04737 -0.34131,-0.06902 -0.51449,-0.08185 -0.39261,-0.02908 -0.79348,-0.05773 -1.181,0.01169 -0.15898,0.02848 -0.30753,0.100191 -0.45603,0.163702 -0.15225,0.06512 -0.30859,0.12733 -0.44433,0.222168 -0.1537,0.107382 -0.29039,0.240873 -0.40926,0.38587 -0.16319,0.199054 -0.15889,0.595084 -0.40926,0.654811 -0.19051,0.04545 -0.31414,-0.251416 -0.5028,-0.304019 -0.51436,-0.143415 -1.07221,0.06725 -1.60194,0 -0.24759,-0.03143 -0.50037,-0.07826 -0.72497,-0.187089 -0.11014,-0.05337 -0.27677,-0.10077 -0.29233,-0.222168 -0.009,-0.06883 0.0721,-0.123447 0.12863,-0.163702 0.2721,-0.193766 0.62959,-0.223704 0.94713,-0.327405 0.30237,-0.09875 0.71217,-0.0332 0.91206,-0.280633 0.22619,-0.279992 0.0335,-0.720853 0.0935,-1.07576 0.0503,-0.297345 0.12545,-0.591349 0.22217,-0.876978 0.10473,-0.309272 0.23857,-0.608958 0.38587,-0.900365 0.16315,-0.322752 0.48952,-0.57882 0.54957,-0.935443 0.0231,-0.137192 -0.0174,-0.285985 -0.0819,-0.409257 -0.0677,-0.129451 -0.18298,-0.233889 -0.30402,-0.315711 -0.19726,-0.133352 -0.43394,-0.200036 -0.66214,-0.268022 -0.17768,-0.05293 -0.36104,-0.091 -0.5457,-0.107487 -0.50243,-0.04486 -1.01172,-0.03067 -1.51309,0.02481 -0.48674,0.05386 -0.96091,0.190118 -1.43867,0.297656 -0.42063,0.09468 -0.83865,0.200688 -1.25677,0.305925 -0.55232,0.139015 -1.10837,0.26547 -1.65365,0.429948 -0.51068,0.154043 -1.0151,0.329733 -1.51308,0.520898 -0.50036,0.19208 -0.99002,0.41123 -1.48002,0.628385 -0.43855,0.194355 -0.87835,0.387024 -1.30638,0.603581 -0.38194,0.193241 -0.75274,0.40791 -1.12448,0.620117 -0.35303,0.201525 -0.70467,0.405763 -1.05006,0.620117 -0.36893,0.228964 -0.72777,0.473796 -1.09141,0.711068 -0.27849,0.18171 -0.55878,0.360692 -0.83509,0.545703 -0.33603,0.225 -0.6688,0.454856 -1.00045,0.686263 -0.34368,0.239801 -0.68711,0.480065 -1.02526,0.727604 -0.28421,0.208057 -0.55946,0.428163 -0.84336,0.636654 -0.24842,0.182439 -0.50115,0.358939 -0.75242,0.537439 -0.25309,0.179798 -0.49773,0.372371 -0.76067,0.537435 -0.22151,0.139055 -0.44385,0.282179 -0.68627,0.380338 -0.23548,0.09535 -0.48845,0.140757 -0.73587,0.198438 -0.19424,0.04528 -0.58704,0.115755 -0.58704,0.115755 0,0 0.78032,0.07453 1.16582,0.02482 0.33343,-0.043 0.65242,-0.165984 0.9699,-0.27658 0.39441,-0.137396 0.78783,-0.285267 1.15761,-0.479415 0.34938,-0.183437 0.66947,-0.418498 0.99391,-0.643117 0.38264,-0.264909 0.74103,-0.563652 1.12253,-0.830206 0.34826,-0.243332 0.70379,-0.476433 1.06407,-0.701583 0.27267,-0.170396 0.5516,-0.330616 0.83021,-0.491108 0.41432,-0.238666 0.8301,-0.475003 1.25115,-0.701582 0.60636,-0.326298 1.21179,-0.65604 1.83581,-0.947136 0.73145,-0.34121 1.47397,-0.662024 2.23337,-0.935444 0.68214,-0.245604 1.37862,-0.453097 2.08136,-0.631424 0.58237,-0.147782 1.1688,-0.29351 1.76565,-0.362484 0.70108,-0.08102 1.4687,-0.338668 2.11644,-0.05847 0.12923,0.0559 0.23779,0.181586 0.28063,0.315713 0.0549,0.171801 -0.002,0.366686 -0.0585,0.53788 -0.12092,0.364855 -0.3737,0.672598 -0.58465,0.993908 -0.22506,0.342795 -0.48604,0.660632 -0.72497,0.993908 -0.24447,0.341 -0.51303,0.666877 -0.72497,1.028988 -0.096,0.164004 -0.21431,0.32705 -0.24556,0.514494 -0.0168,0.100624 -0.0105,0.212778 0.0351,0.304019 0.0456,0.09124 0.14241,0.146872 0.22217,0.210475 0.19777,0.157716 0.38977,0.346171 0.63143,0.420949 0.61069,0.188975 1.2909,-0.102473 1.91765,0.02339 0.38745,0.07781 0.73463,0.291702 1.09915,0.444335 0.35264,0.147659 0.71489,0.276405 1.05237,0.456029 0.4085,0.217423 0.81376,0.452155 1.16931,0.748354 0.30723,0.255944 0.81851,0.87698 0.81851,0.87698 l 0.0351,0.175394 c 0,0 -2.34346,0.227589 -3.50791,0.397563 -1.22635,0.17901 -2.44598,0.405162 -3.65992,0.65481 -0.79179,0.162833 -1.57743,0.354884 -2.362,0.549574 -0.71204,0.176691 -1.42273,0.35971 -2.12813,0.561266 -1.03133,0.294684 -2.06394,0.589805 -3.07527,0.947137 -0.96974,0.342637 -1.92697,0.723684 -2.8648,1.145918 -0.82333,0.370683 -1.65749,0.733221 -2.42046,1.216075 -0.47631,0.301439 -1.33292,1.040662 -1.33292,1.040662 z"
             id="path31668"
             sodipodi:nodetypes="caaaaaaaaaaacaaaaaacaaaaaaaaaaaaaaaaaaaaaaaaaaaaaaaaaaaaaaaaaaaaaacaaaaaaaaaaaaaaaaaaaaaaaaaaccaaaaaaac" />
          <path
             style="fill:#ffffff;stroke:#000000;stroke-width:0.264583px;stroke-linecap:butt;stroke-linejoin:miter;stroke-opacity:1"
             d="m 125.71015,25.052734 c 0,0 0.66683,-0.04127 1.00046,-0.05787 0.33659,-0.01675 0.67356,-0.02518 1.01014,-0.0421 0.25321,-0.01273 0.50579,-0.04971 0.75926,-0.04472 0.18275,0.0036 0.38165,-0.02683 0.5457,0.05378 0.11724,0.05761 0.20258,0.172602 0.26872,0.285253 0.0995,0.169502 0.13041,0.371474 0.17777,0.56224 0.0462,0.186254 0.0924,0.374778 0.10334,0.566374 0.006,0.103413 0.0172,0.213639 -0.0206,0.310059 -0.0344,0.08755 -0.0971,0.170785 -0.17777,0.219106 -0.0939,0.05624 -0.21306,0.05849 -0.32246,0.06201 -0.13188,0.0042 -0.26457,-0.01824 -0.39274,-0.04961 -0.14272,-0.03493 -0.27804,-0.09582 -0.4134,-0.152961 -0.14765,-0.06232 -0.29245,-0.131719 -0.43409,-0.206705 -0.13264,-0.07022 -0.25935,-0.151118 -0.38861,-0.227377 -0.1602,-0.09451 -0.32031,-0.189167 -0.47956,-0.285253 -0.18536,-0.111838 -0.37414,-0.218467 -0.55397,-0.338998 -0.19576,-0.131206 -0.42037,-0.235898 -0.57051,-0.417545 -0.0554,-0.067 -0.11165,-0.235679 -0.11165,-0.235679 z"
             id="path32037"
             sodipodi:nodetypes="caaaaaaaaaaaaaaaaacc" />
        </g>
        <text
           xml:space="preserve"
           transform="matrix(0.26458333,0,0,0.26458333,-8.3343749,-29.104166)"
           id="text40938"
           style="font-style:normal;font-weight:normal;font-size:40px;line-height:1.25;font-family:sans-serif;white-space:pre;shape-inside:url(#rect40940);fill:#000000;fill-opacity:1;stroke:none" />
      </g>
      <g
         id="g137150"
         transform="translate(0.92604175,-1.3229166)">
        <path
           style="opacity:1;fill:#000000;fill-opacity:1;stroke:#000000;stroke-width:0.302915;stroke-opacity:0"
           id="path113339"
           d="m 133.31681,132.61617 c -0.40874,-0.0962 -0.79647,-0.23589 -1.18078,-0.38436 -0.59695,-0.22634 -1.23476,-0.36289 -1.87521,-0.48403 -1.24181,-0.20932 -2.52694,-0.26413 -3.81275,-0.29445 -1.45561,-0.0254 -2.94444,0.18724 -4.41489,0.59537 -0.33213,0.0922 -0.66182,0.20275 -0.9927,0.30413 -2.42363,0.83942 -4.78467,1.99038 -7.13801,3.07161 -0.56288,0.25861 -1.67755,0.8576 -2.21375,1.16364 -0.37021,0.2113 -0.73375,0.43703 -1.10061,0.65555 -1.8624,1.10603 -3.6648,2.32763 -5.499,3.48768 -0.77627,0.45672 -1.53482,0.9589 -2.32784,1.37928 -0.14707,0.078 -0.29698,0.14832 -0.44548,0.22247 1.27228,-0.57772 2.54456,-1.15547 3.81683,-1.73319 -0.64221,0.29572 -1.30189,0.44083 -1.96524,0.49855 -0.8413,0.0555 -1.64381,-0.0659 -2.42605,-0.24021 -1.05058,-0.29028 -2.021305,-0.74598 -2.970723,-1.22528 -1.324474,-0.69126 -2.608407,-1.44403 -3.922176,-2.15202 -1.45518,-0.80056 -2.985214,-1.47288 -4.54601,-2.09228 -1.605095,-0.5724 -3.328744,-0.87051 -5.034312,-1.19161 -1.487209,-0.27961 -2.97815,-0.54663 -4.480157,-0.78143 -1.330645,-0.20601 -2.667061,-0.39666 -4.03317,-0.47204 -1.414263,-0.008 -2.845715,0.0995 -4.275015,0.21439 -1.336045,0.15167 -2.65546,0.16962 -3.969077,0.14837 -1.133897,-0.0653 -2.291137,-0.0706 -3.38334,-0.29419 -0.18602,-0.038 -0.366854,-0.0898 -0.550302,-0.13461 -0.598078,-0.19709 -1.192847,-0.443 -1.632925,-0.87869 -0.223735,-0.2215 -0.326082,-0.41108 -0.497891,-0.67599 -0.422987,-0.78083 -0.510263,-1.70565 -0.508987,-2.63944 0.02559,-1.28458 0.08329,-2.57229 0.06609,-3.85024 -0.0422,-1.27072 -0.175792,-2.52657 -0.48783,-3.71815 -0.26836,-1.02479 -0.450052,-1.41974 -0.826652,-2.41415 -0.734681,-1.69974 -1.68976,-3.27052 -2.779052,-4.72788 -0.579289,-0.775 -0.812568,-1.02642 -1.425734,-1.74557 -0.549251,-0.61627 -1.116193,-1.21972 -1.731803,-1.77072 -0.310054,-0.27752 -0.54958,-0.475 -0.912619,-0.68266 -0.145537,-0.0833 -0.303378,-0.14735 -0.455086,-0.22096 -0.691213,-0.2518 -1.461569,-0.25476 -2.232206,0.0818 -4.588832,2.00368 -3.4311,1.3502 -5.690945,2.70557 -1.366849,0.84993 -2.626546,1.88779 -3.755058,3.05644 -0.209833,0.2173 -0.408855,0.44454 -0.61329,0.66682 -0.727809,0.86057 -1.435189,1.74468 -2.008221,2.7049 -0.293139,0.49119 -0.37548,0.68138 -0.620718,1.17774 -0.196913,0.41306 -0.36291,0.83464 -0.522856,1.25753 0,0 4.376957,-1.67493 4.376957,-1.67493 v 0 c 0.128011,-0.39379 0.26242,-0.78668 0.442187,-1.16884 0.234634,-0.4821 0.293767,-0.62999 0.581978,-1.10699 0.560314,-0.92734 1.24941,-1.7843 1.975223,-2.6009 0.20321,-0.21399 0.401556,-0.43267 0.60965,-0.64201 1.129552,-1.13629 2.389217,-2.13286 3.756762,-2.93192 1.848609,-1.01884 1.385187,-0.73021 -2.494318,0.99279 -0.201528,0.0895 0.404472,-0.17669 0.610798,-0.24627 0.509497,-0.1718 0.978293,-0.19744 1.454543,-0.0779 0.152422,0.0546 0.310767,0.0983 0.45724,0.16402 0.358115,0.16104 0.64766,0.36211 0.958081,0.59278 0.670498,0.49821 1.292122,1.05583 1.871194,1.65386 0.614929,0.65256 0.929832,0.96333 1.504119,1.67334 1.12547,1.39147 2.076387,2.93265 2.749238,4.63549 0.138461,0.41405 0.293337,0.82063 0.415364,1.24214 0.447492,1.54567 0.623455,3.19651 0.624093,4.87185 -0.02719,1.29481 -0.127118,2.5976 -0.167673,3.89396 -0.0011,1.03884 0.106001,1.97168 0.559673,2.84962 0.158997,0.2567 0.327446,0.55599 0.533112,0.7766 0.458821,0.49216 1.098436,0.7747 1.738726,1.00545 0.529668,0.14034 0.63942,0.18459 1.198429,0.26948 0.918613,0.13959 1.87452,0.13926 2.810343,0.21047 1.309235,0.07 2.633867,0.0634 3.976081,-0.0975 1.413966,-0.12689 2.829666,-0.24724 4.229076,-0.24611 1.384059,0.0376 2.739771,0.19548 4.083398,0.3932 1.507956,0.23994 3.001839,0.52301 4.513045,0.75296 1.693328,0.29952 3.38807,0.60999 4.992601,1.13929 1.572644,0.57535 3.08741,1.2562 4.538934,2.04335 1.294182,0.71165 2.554599,1.47167 3.834728,2.20397 0.941992,0.51139 1.907973,0.99262 2.946749,1.33481 0.771334,0.21672 1.566537,0.38243 2.405504,0.38322 0.69069,-0.002 1.38298,-0.10276 2.07069,-0.37222 1.53739,-0.69441 3.0785,-1.37701 4.61219,-2.08324 0.16343,-0.0752 0.74543,-0.42686 0.8846,-0.51127 0.58399,-0.35417 1.16382,-0.71719 1.73884,-1.08878 1.77488,-1.16201 3.53793,-2.34782 5.35732,-3.4252 1.03952,-0.60237 1.16555,-0.69431 2.23572,-1.23797 0.36951,-0.18772 1.49456,-0.70202 1.11575,-0.54322 -0.9716,0.40729 -1.93301,0.85073 -2.89546,1.28928 -0.34373,0.15661 0.69046,-0.30393 1.03902,-0.44338 0.33383,-0.13357 0.67164,-0.25027 1.00748,-0.3754 0.78997,-0.25833 1.12319,-0.38595 1.91752,-0.57303 1.11968,-0.26369 2.24616,-0.40737 3.35199,-0.39932 1.23976,0.0186 2.46838,0.0899 3.65864,0.30733 0.61163,0.11403 1.21066,0.26031 1.78953,0.4552 0.38001,0.14043 0.73663,0.32557 1.13539,0.42881 0,0 4.27061,-2.30496 4.27061,-2.30496 z" />
        <text
           xml:space="preserve"
           style="font-style:normal;font-weight:normal;font-size:15.6088px;line-height:1.25;font-family:sans-serif;fill:#000000;fill-opacity:1;stroke:none;stroke-width:0.39022"
           x="47.443264"
           y="171.61237"
           id="text67160"
           transform="scale(1.2950835,0.77215098)"><tspan
             sodipodi:role="line"
             id="tspan67158"
             style="font-style:normal;font-variant:normal;font-weight:normal;font-stretch:normal;font-family:'MV Boli';-inkscape-font-specification:'MV Boli';fill:#ff1801;fill-opacity:1;stroke-width:0.39022"
             x="47.443264"
             y="171.61237">F1 LIVE</tspan></text>
        <circle
           id="path113458"
           style="fill:#000000;stroke:#000000;stroke-width:0.264583"
           cx="46.585079"
           cy="125.63004"
           r="0.012460014" />
      </g>
    </g>
  </g>
</svg>
